<svg width="32" height="32" viewBox="0 0 32 32" fill="none" xmlns="http://www.w3.org/2000/svg">
<rect width="32" height="32" rx="16" fill="#3C709C"/>
<path d="M6 7H26V11L25.301 11.42C24.757 11.7464 24.1346 11.9188 23.5002 11.9188C22.8659 11.9188 22.2435 11.7464 21.6995 11.42L21 11L20.301 11.42C19.757 11.7464 19.1346 11.9188 18.5002 11.9188C17.8659 11.9188 17.2435 11.7464 16.6995 11.42L16 11L15.301 11.42C14.757 11.7464 14.1346 11.9188 13.5002 11.9188C12.8659 11.9188 12.2435 11.7464 11.6995 11.42L11 11L10.3005 11.42C9.7566 11.7463 9.13426 11.9186 8.5 11.9186C7.86574 11.9186 7.2434 11.7463 6.6995 11.42L6 11V7Z" fill="white" stroke="white" stroke-width="1.5" stroke-linecap="round" stroke-linejoin="round"/>
<path d="M8.5 12.5V17M23.5 12.5V17M7 17H25V26H7V17Z" stroke="white" stroke-width="1.5" stroke-linecap="round" stroke-linejoin="round"/>
<path d="M6 7H26V11L25.301 11.42C24.757 11.7464 24.1346 11.9188 23.5002 11.9188C22.8659 11.9188 22.2435 11.7464 21.6995 11.42L21 11L20.301 11.42C19.757 11.7464 19.1346 11.9188 18.5002 11.9188C17.8659 11.9188 17.2435 11.7464 16.6995 11.42L16 11L15.301 11.42C14.757 11.7464 14.1346 11.9188 13.5002 11.9188C12.8659 11.9188 12.2435 11.7464 11.6995 11.42L11 11L10.3005 11.42C9.7566 11.7463 9.13426 11.9186 8.5 11.9186C7.86574 11.9186 7.2434 11.7463 6.6995 11.42L6 11V7Z" fill="white" stroke="white" stroke-width="1.5" stroke-linecap="round" stroke-linejoin="round"/>
<path d="M8.5 12.5V17M23.5 12.5V17M7 17H25V26H7V17Z" stroke="white" stroke-width="1.5" stroke-linecap="round" stroke-linejoin="round"/>
</svg>
