<svg width="36" height="36" viewBox="0 0 36 36" fill="none" xmlns="http://www.w3.org/2000/svg">
<rect x="1" y="1" width="34" height="34" rx="17" fill="#9FA4A9"/>
<rect x="1" y="1" width="34" height="34" rx="17" stroke="black" stroke-width="2"/>
<path fill-rule="evenodd" clip-rule="evenodd" d="M15.2965 27.963H20.0368C23.3659 27.963 25.0309 27.963 26.2267 27.1886C26.7427 26.8548 27.1871 26.4238 27.5344 25.9202C28.3333 24.7614 28.3333 23.1464 28.3333 19.9185C28.3333 16.6906 28.3333 15.0756 27.5344 13.9167C27.1871 13.4131 26.7427 12.9821 26.2267 12.6483C25.4587 12.15 24.4965 11.972 23.0235 11.9087C22.3205 11.9087 21.7157 11.3925 21.5781 10.7236C21.473 10.2336 21.1998 9.79442 20.8046 9.48039C20.4095 9.16636 19.9167 8.99669 19.4096 9.00005H15.9237C14.8699 9.00005 13.9621 9.72169 13.7552 10.7236C13.6176 11.3925 13.0128 11.9087 12.3099 11.9087C10.8379 11.972 9.87573 12.1511 9.10667 12.6483C8.59097 12.9822 8.14696 13.4132 7.8 13.9167C7 15.0756 7 16.6895 7 19.9185C7 23.1474 7 24.7603 7.79893 25.9202C8.14453 26.4217 8.58827 26.8526 9.10667 27.1886C10.3024 27.963 11.9675 27.963 15.2965 27.963ZM17.6667 15.6086C15.2123 15.6086 13.2219 17.5376 13.2219 19.9174C13.2219 22.2973 15.2133 24.2294 17.6667 24.2294C20.12 24.2294 22.1115 22.2994 22.1115 19.9195C22.1115 17.5397 20.12 15.6086 17.6667 15.6086ZM17.6667 17.3321C16.1947 17.3321 15 18.4899 15 19.9185C15 21.346 16.1947 22.5038 17.6667 22.5038C19.1387 22.5038 20.3333 21.346 20.3333 19.9185C20.3333 18.491 19.1387 17.3321 17.6667 17.3321ZM22.7035 16.4704C22.7035 15.9942 23.1013 15.6086 23.5931 15.6086H24.7771C25.2677 15.6086 25.6667 15.9942 25.6667 16.4704C25.6644 16.701 25.5696 16.9213 25.403 17.0829C25.2364 17.2445 25.0116 17.3341 24.7781 17.3321H23.5931C23.4774 17.3333 23.3626 17.3118 23.2552 17.2691C23.1479 17.2264 23.0502 17.1633 22.9675 17.0832C22.8849 17.0032 22.8191 16.9079 22.7738 16.8028C22.7285 16.6976 22.7046 16.5847 22.7035 16.4704Z" fill="white"/>
</svg>
