<svg width="32" height="32" viewBox="0 0 32 32" fill="none" xmlns="http://www.w3.org/2000/svg">
<rect width="32" height="32" rx="16" fill="#553636"/>
<path d="M25.8357 9H6.175C4.99107 9 4 9.87875 4 10.9285V17.3505C4 23.2737 9.34107 28 16.0107 28C22.6536 28 28 23.2737 28 17.3505V10.9285C28 9.8645 27.0518 9 25.8357 9ZM17.1571 21.7537C16.4929 22.3142 15.475 22.281 14.8857 21.7537C8.79464 16.581 8.73036 16.7615 8.73036 15.9018C8.73036 15.099 9.46964 14.4435 10.375 14.4435C11.2857 14.4435 11.2375 14.624 16.0107 18.6852C20.8643 14.5575 20.7571 14.4435 21.6625 14.4435C22.5679 14.4435 23.3071 15.099 23.3071 15.9018C23.3071 16.7473 23.1518 16.6475 17.1571 21.7537Z" fill="white"/>
</svg>
