<svg width="36" height="36" viewBox="0 0 36 36" fill="none" xmlns="http://www.w3.org/2000/svg">
<rect x="1" y="1" width="34" height="34" rx="17" fill="#A7C9EC"/>
<rect x="1" y="1" width="34" height="34" rx="17" stroke="black" stroke-width="2"/>
<path d="M18 9C16.9789 9 15.9997 9.41484 15.2776 10.1533C14.5556 10.8917 14.15 11.8932 14.15 12.9375H16.35C16.35 12.4899 16.5238 12.0607 16.8333 11.7443C17.1427 11.4278 17.5624 11.25 18 11.25C18.4376 11.25 18.8573 11.4278 19.1667 11.7443C19.4762 12.0607 19.65 12.4899 19.65 12.9375C19.65 13.3851 19.4762 13.8143 19.1667 14.1307C18.8573 14.4472 18.4376 14.625 18 14.625C17.395 14.625 16.9 15.1312 16.9 15.75V17.7188L7.44 24.975C7.2553 25.1167 7.11887 25.3142 7.05004 25.5396C6.9812 25.7649 6.98344 26.0068 7.05645 26.2308C7.12946 26.4548 7.26953 26.6496 7.45682 26.7876C7.64411 26.9257 7.86913 27 8.1 27H27.9C28.1309 27 28.3559 26.9257 28.5432 26.7876C28.7305 26.6496 28.8705 26.4548 28.9436 26.2308C29.0166 26.0068 29.0188 25.7649 28.95 25.5396C28.8811 25.3142 28.7447 25.1167 28.56 24.975L19.1 17.7188V16.7063C19.8938 16.4642 20.5901 15.9668 21.0855 15.2878C21.5809 14.6089 21.849 13.7847 21.85 12.9375C21.85 11.8932 21.4444 10.8917 20.7224 10.1533C20.0003 9.41484 19.0211 9 18 9ZM18 19.6875L24.6 24.75H11.4L18 19.6875Z" fill="black"/>
</svg>
