<svg width="32" height="32" viewBox="0 0 32 32" fill="none" xmlns="http://www.w3.org/2000/svg">
<rect width="32" height="32" rx="16" fill="#FF81C6"/>
<path fill-rule="evenodd" clip-rule="evenodd" d="M14.0114 25.8199H18.7516C22.0807 25.8199 23.7458 25.8199 24.9415 25.0456C25.4576 24.7118 25.902 24.2807 26.2492 23.7772C27.0482 22.6183 27.0482 21.0033 27.0482 17.7754C27.0482 14.5475 27.0482 12.9325 26.2492 11.7736C25.902 11.2701 25.4576 10.839 24.9415 10.5052C24.1735 10.0069 23.2114 9.82889 21.7383 9.76568C21.0354 9.76568 20.4306 9.24947 20.293 8.5805C20.1878 8.09049 19.9146 7.65136 19.5195 7.33732C19.1244 7.02329 18.6316 6.85362 18.1244 6.85698H14.6386C13.5847 6.85698 12.677 7.57863 12.47 8.5805C12.3324 9.24947 11.7276 9.76568 11.0247 9.76568C9.55271 9.82889 8.59058 10.008 7.82151 10.5052C7.30582 10.8392 6.8618 11.2702 6.51484 11.7736C5.71484 12.9325 5.71484 14.5464 5.71484 17.7754C5.71484 21.0044 5.71484 22.6173 6.51378 23.7772C6.85938 24.2786 7.30311 24.7095 7.82151 25.0456C9.01724 25.8199 10.6823 25.8199 14.0114 25.8199ZM16.3815 13.4656C13.9271 13.4656 11.9367 15.3945 11.9367 17.7744C11.9367 20.1542 13.9282 22.0863 16.3815 22.0863C18.8348 22.0863 20.8263 20.1563 20.8263 17.7765C20.8263 15.3966 18.8348 13.4656 16.3815 13.4656ZM16.3815 15.1891C14.9095 15.1891 13.7148 16.3469 13.7148 17.7754C13.7148 19.2029 14.9095 20.3607 16.3815 20.3607C17.8535 20.3607 19.0482 19.2029 19.0482 17.7754C19.0482 16.3479 17.8535 15.1891 16.3815 15.1891ZM21.4183 14.3273C21.4183 13.8511 21.8162 13.4656 22.3079 13.4656H23.4919C23.9826 13.4656 24.3815 13.8511 24.3815 14.3273C24.3793 14.5579 24.2844 14.7782 24.1178 14.9398C23.9512 15.1014 23.7265 15.191 23.493 15.1891H22.3079C22.1922 15.1902 22.0774 15.1688 21.9701 15.1261C21.8628 15.0834 21.765 15.0202 21.6824 14.9402C21.5998 14.8602 21.5339 14.7648 21.4886 14.6597C21.4433 14.5545 21.4194 14.4416 21.4183 14.3273Z" fill="white"/>
</svg>
