<svg width="32" height="32" viewBox="0 0 32 32" fill="none" xmlns="http://www.w3.org/2000/svg">
<rect width="32" height="32" rx="16" fill="#F7994F"/>
<path d="M16 19.8232C23.7 19.8232 30 24.8232 30 28.8232C30 29.6189 29.6839 30.382 29.1213 30.9446C28.5587 31.5072 27.7956 31.8232 27 31.8232H5C4.20435 31.8232 3.44129 31.5072 2.87868 30.9446C2.31607 30.382 2 29.6189 2 28.8232C2 24.8232 8.3 19.8232 16 19.8232ZM16 3.82324C17.8565 3.82324 19.637 4.56074 20.9497 5.87349C22.2625 7.18625 23 8.96673 23 10.8232C23 12.6798 22.2625 14.4602 20.9497 15.773C19.637 17.0857 17.8565 17.8232 16 17.8232C14.1435 17.8232 12.363 17.0857 11.0503 15.773C9.7375 14.4602 9 12.6798 9 10.8232C9 8.96673 9.7375 7.18625 11.0503 5.87349C12.363 4.56074 14.1435 3.82324 16 3.82324Z" fill="white"/>
</svg>
